<svg id="svg" xmlns="http://www.w3.org/2000/svg" xmlns:xlink="http://www.w3.org/1999/xlink" width="468" height="94" viewBox="0, 0, 400,80.34188034188034"><g id="svgg"><path id="path0" d="M0.000 40.171 L 0.000 80.342 200.000 80.342 L 400.000 80.342 400.000 40.171 L 400.000 0.000 200.000 0.000 L 0.000 0.000 0.000 40.171 M60.256 12.084 C 65.272 14.597,65.800 16.020,62.947 19.336 L 60.849 21.775 57.438 19.858 C 48.143 14.634,35.897 17.921,35.897 25.641 C 35.897 30.167,38.596 32.174,47.372 34.174 C 62.289 37.572,66.678 41.349,66.653 50.767 C 66.616 64.168,53.615 71.230,37.248 66.740 C 31.495 65.162,24.764 61.878,24.832 60.684 C 24.972 58.203,30.115 54.416,31.851 55.515 C 43.508 62.897,58.120 60.646,58.120 51.470 C 58.120 45.914,56.256 44.811,41.026 41.357 C 27.480 38.286,22.844 25.087,31.748 14.946 C 36.925 9.050,51.316 7.605,60.256 12.084 M315.471 10.390 C 321.493 12.438,328.205 20.188,328.205 25.094 C 328.205 28.171,320.093 26.946,318.099 23.567 C 313.484 15.746,303.808 15.629,299.108 23.337 C 296.414 27.755,296.620 50.671,299.390 54.788 C 305.774 64.275,320.513 58.807,320.513 46.953 L 320.513 44.444 314.957 44.444 C 311.875 44.444,309.367 44.064,309.324 43.590 C 309.281 43.120,309.246 41.581,309.246 40.171 C 309.246 38.761,309.281 37.222,309.324 36.752 C 309.371 36.236,313.300 35.897,319.231 35.897 L 329.060 35.897 329.060 43.007 C 329.060 60.544,319.206 70.620,305.032 67.581 C 291.830 64.749,288.885 59.478,288.897 38.703 C 288.911 14.589,298.325 4.559,315.471 10.390 M372.101 12.296 C 377.587 14.981,377.750 15.421,374.729 19.381 L 372.536 22.258 370.234 20.619 C 361.408 14.334,347.863 17.574,347.863 25.969 C 347.863 29.036,350.106 32.068,352.928 32.816 C 353.668 33.012,357.779 34.008,362.064 35.029 C 376.533 38.478,382.111 46.625,377.456 57.506 C 372.735 68.539,352.190 71.617,339.761 63.152 C 336.151 60.694,336.171 60.888,339.154 57.315 L 341.555 54.438 345.598 56.808 C 353.047 61.173,364.539 60.667,368.363 55.806 C 372.277 50.830,369.431 45.221,362.186 43.633 C 347.279 40.365,346.289 39.991,342.674 36.261 C 336.934 30.340,338.686 17.172,345.799 12.776 C 352.652 8.541,364.002 8.334,372.101 12.296 M114.365 13.889 L 114.103 17.521 99.756 17.756 L 85.409 17.990 85.653 26.303 L 85.897 34.615 97.650 34.853 L 109.402 35.091 109.402 38.913 L 109.402 42.735 97.436 42.735 L 85.470 42.735 85.470 50.834 L 85.470 58.933 99.786 59.167 L 114.103 59.402 114.103 63.248 L 114.103 67.094 95.726 67.094 L 77.350 67.094 77.125 38.675 L 76.900 10.256 95.764 10.256 L 114.628 10.256 114.365 13.889 M159.339 13.889 L 159.165 17.521 151.390 17.767 L 143.616 18.013 143.389 42.553 L 143.162 67.094 139.316 67.094 L 135.470 67.094 135.243 42.521 L 135.017 17.949 126.910 17.949 L 118.803 17.949 118.803 14.103 L 118.803 10.256 139.158 10.256 L 159.514 10.256 159.339 13.889 M204.274 14.103 L 204.274 17.949 196.167 17.949 L 188.060 17.949 187.834 42.521 L 187.607 67.094 183.761 67.094 L 179.915 67.094 179.688 42.521 L 179.461 17.949 171.354 17.949 L 163.248 17.949 163.248 14.103 L 163.248 10.256 183.761 10.256 L 204.274 10.256 204.274 14.103 M219.658 38.936 L 219.658 67.615 215.598 67.355 L 211.538 67.094 211.313 38.675 L 211.088 10.256 215.373 10.256 L 219.658 10.256 219.658 38.936 M254.284 30.556 L 267.094 50.855 267.323 30.556 L 267.552 10.256 271.822 10.256 L 276.091 10.256 275.866 38.675 L 275.641 67.094 271.903 67.094 L 268.165 67.094 255.882 47.863 C 249.126 37.286,243.597 28.344,243.594 27.991 C 243.592 27.639,243.212 27.350,242.751 27.350 C 242.233 27.350,241.824 34.949,241.682 47.222 L 241.453 67.094 237.607 67.094 L 233.761 67.094 233.535 38.675 L 233.310 10.256 237.392 10.256 L 241.473 10.256 254.284 30.556 " stroke="none" fill="#FFFFFF" fill-rule="evenodd"></path></g></svg>