<svg id="svg" xmlns="http://www.w3.org/2000/svg" xmlns:xlink="http://www.w3.org/1999/xlink" width="468" height="94" viewBox="0, 0, 400,80.34188034188034"><g id="svgg"><path id="path0" d="M0.000 40.171 L 0.000 80.342 200.000 80.342 L 400.000 80.342 400.000 40.171 L 400.000 0.000 200.000 0.000 L 0.000 0.000 0.000 40.171 M123.786 12.839 C 129.893 15.466,130.280 16.173,127.644 19.878 L 125.434 22.985 121.173 20.757 C 113.353 16.668,103.199 18.273,100.838 23.971 C 98.399 29.860,102.071 33.445,112.884 35.733 C 127.972 38.925,132.693 44.604,130.404 56.808 C 128.147 68.838,106.470 73.265,92.949 64.457 C 89.144 61.978,89.083 61.599,91.952 58.191 L 94.159 55.567 97.785 57.692 C 107.333 63.287,120.070 61.584,122.468 54.392 C 124.346 48.758,120.422 45.577,108.670 43.204 C 96.167 40.680,92.308 36.991,92.308 27.567 C 92.308 12.911,107.467 5.819,123.786 12.839 M174.646 14.957 L 174.648 18.376 166.811 18.622 L 158.974 18.868 158.974 43.622 L 158.974 68.376 154.701 68.376 L 150.427 68.376 150.427 43.590 L 150.427 18.803 142.308 18.803 L 134.188 18.803 134.188 14.942 L 134.188 11.080 154.416 11.309 L 174.645 11.538 174.646 14.957 M202.802 14.316 C 205.136 20.167,222.222 67.230,222.222 67.808 C 222.222 68.893,213.633 68.412,213.279 67.308 C 213.090 66.720,212.085 63.825,211.045 60.873 L 209.155 55.508 197.974 55.745 L 186.793 55.983 184.618 61.966 L 182.443 67.949 177.974 68.207 C 175.516 68.349,173.504 68.304,173.504 68.106 C 173.504 67.908,177.193 57.792,181.702 45.625 C 186.211 33.459,190.897 20.716,192.116 17.308 L 194.333 11.111 197.928 11.111 C 201.286 11.111,201.608 11.323,202.802 14.316 M263.812 14.157 C 272.723 21.269,272.436 35.474,263.260 41.546 L 259.888 43.778 263.398 50.308 C 265.328 53.899,268.200 59.208,269.779 62.105 C 273.422 68.788,273.514 68.507,267.778 68.205 L 262.907 67.949 256.881 56.208 L 250.855 44.467 245.085 44.456 L 239.316 44.444 239.316 56.410 L 239.316 68.376 235.043 68.376 L 230.769 68.376 230.769 39.688 L 230.769 11.001 245.650 11.270 L 260.531 11.538 263.812 14.157 M316.075 15.171 L 316.338 18.803 308.182 18.803 L 300.026 18.803 299.799 43.376 L 299.573 67.949 295.726 67.949 L 291.880 67.949 291.654 43.376 L 291.427 18.803 283.320 18.803 L 275.214 18.803 275.214 14.942 L 275.214 11.080 295.513 11.309 L 315.812 11.538 316.075 15.171 M239.316 27.350 L 239.316 35.897 248.291 35.897 C 259.814 35.897,262.721 33.494,261.173 25.245 C 260.209 20.106,257.494 18.803,247.748 18.803 L 239.316 18.803 239.316 27.350 M193.987 34.754 C 191.985 40.789,190.170 46.207,189.954 46.795 C 189.657 47.603,191.563 47.863,197.772 47.863 C 202.288 47.863,205.983 47.575,205.983 47.223 C 205.983 46.015,198.932 25.214,198.280 24.498 C 197.921 24.104,195.989 28.719,193.987 34.754 " stroke="none" fill="#FFFFFF" fill-rule="evenodd"></path></g></svg>