<svg id="svg" xmlns="http://www.w3.org/2000/svg" xmlns:xlink="http://www.w3.org/1999/xlink" width="468" height="94" viewBox="0, 0, 400,80.34188034188034"><g id="svgg"><path id="path0" d="M47.863 39.744 L 47.863 68.376 52.120 68.376 L 56.376 68.376 56.607 50.256 L 56.838 32.135 62.724 45.341 C 72.232 66.669,72.815 66.670,82.027 45.396 L 88.462 30.536 88.692 49.502 L 88.922 68.468 92.780 68.209 L 96.638 67.949 96.638 39.744 L 96.638 11.538 92.881 11.283 L 89.123 11.027 81.100 29.008 C 76.687 38.898,72.751 46.886,72.354 46.758 C 71.956 46.631,68.123 38.558,63.836 28.819 L 56.041 11.111 51.952 11.111 L 47.863 11.111 47.863 39.744 M125.263 11.885 C 125.000 12.311,121.495 21.638,117.475 32.612 C 110.881 50.610,106.353 62.746,104.692 66.880 C 104.163 68.197,104.656 68.376,108.812 68.376 L 113.533 68.376 115.598 62.179 L 117.664 55.983 129.060 55.983 L 140.456 55.983 142.535 62.221 L 144.615 68.459 149.017 68.204 C 151.438 68.064,153.332 67.564,153.227 67.094 C 153.122 66.624,149.548 56.816,145.285 45.299 C 141.022 33.782,136.978 22.780,136.297 20.851 C 132.985 11.462,132.726 11.111,129.099 11.111 C 127.253 11.111,125.527 11.460,125.263 11.885 M161.927 12.187 C 161.700 12.779,161.616 25.567,161.740 40.606 L 161.966 67.949 166.026 68.209 L 170.085 68.470 170.085 48.337 C 170.085 37.265,170.374 28.227,170.726 28.254 C 171.079 28.281,177.009 37.223,183.905 48.126 L 196.442 67.949 200.358 68.209 L 204.274 68.470 204.274 39.744 L 204.274 11.017 200.214 11.278 L 196.154 11.538 195.977 31.197 C 195.879 42.009,195.783 51.201,195.763 51.625 C 195.743 52.049,189.861 43.107,182.692 31.755 L 169.658 11.114 165.999 11.113 C 163.845 11.112,162.170 11.554,161.927 12.187 M217.255 32.692 C 217.645 61.639,220.017 66.659,234.320 68.804 C 252.321 71.503,257.477 63.621,257.944 32.692 L 258.271 11.111 253.922 11.111 L 249.573 11.111 249.554 30.983 C 249.530 56.761,247.952 60.684,237.607 60.684 C 227.262 60.684,225.684 56.761,225.660 30.983 L 225.641 11.111 221.303 11.111 L 216.964 11.111 217.255 32.692 M281.683 17.308 C 275.693 33.271,263.248 67.442,263.248 67.925 C 263.248 68.222,265.253 68.349,267.705 68.207 L 272.161 67.949 273.901 62.821 C 276.504 55.150,275.738 55.556,287.607 55.556 C 299.481 55.556,298.730 55.157,301.282 62.818 L 302.991 67.949 307.479 68.207 C 312.975 68.523,313.050 69.802,306.553 52.472 C 303.575 44.531,298.920 31.976,296.206 24.573 L 291.273 11.111 287.641 11.111 L 284.008 11.111 281.683 17.308 M320.513 39.744 L 320.513 68.376 338.889 68.376 L 357.265 68.376 357.265 64.530 L 357.265 60.684 343.162 60.684 L 329.060 60.684 329.060 35.897 L 329.060 11.111 324.786 11.111 L 320.513 11.111 320.513 39.744 M133.188 35.043 C 135.059 40.449,136.860 45.545,137.190 46.368 C 137.738 47.733,137.034 47.863,129.080 47.863 C 124.290 47.863,120.499 47.532,120.655 47.126 C 120.812 46.721,122.662 41.346,124.766 35.182 C 126.870 29.019,128.860 24.254,129.188 24.595 C 129.517 24.935,131.316 29.637,133.188 35.043 M292.176 35.897 C 294.134 41.774,295.733 46.870,295.731 47.222 C 295.728 47.575,292.031 47.863,287.514 47.863 L 279.302 47.863 279.830 45.759 C 281.270 40.023,287.477 23.899,288.009 24.512 C 288.344 24.898,290.219 30.021,292.176 35.897 " stroke="none" fill="#FFFFFF" fill-rule="evenodd"></path></g></svg>