<svg id="svg" xmlns="http://www.w3.org/2000/svg" xmlns:xlink="http://www.w3.org/1999/xlink" width="468" height="94" viewBox="0, 0, 400,80.34188034188034"><g id="svgg"><path id="path0" d="M0.000 40.171 L 0.000 80.342 200.000 80.342 L 400.000 80.342 400.000 40.171 L 400.000 0.000 200.000 0.000 L 0.000 0.000 0.000 40.171 M63.836 28.819 C 68.123 38.558,71.956 46.631,72.354 46.758 C 72.751 46.886,76.687 38.898,81.100 29.008 L 89.123 11.027 92.881 11.283 L 96.638 11.538 96.638 39.744 L 96.638 67.949 92.780 68.209 L 88.922 68.468 88.692 49.502 L 88.462 30.536 82.027 45.396 C 72.815 66.670,72.232 66.669,62.724 45.341 L 56.838 32.135 56.607 50.256 L 56.376 68.376 52.120 68.376 L 47.863 68.376 47.863 39.744 L 47.863 11.111 51.952 11.111 L 56.041 11.111 63.836 28.819 M133.757 14.227 C 134.473 15.940,135.616 18.921,136.297 20.851 C 136.978 22.780,141.022 33.782,145.285 45.299 C 149.548 56.816,153.122 66.624,153.227 67.094 C 153.332 67.564,151.438 68.064,149.017 68.204 L 144.615 68.459 142.535 62.221 L 140.456 55.983 129.060 55.983 L 117.664 55.983 115.598 62.179 L 113.533 68.376 108.812 68.376 C 104.656 68.376,104.163 68.197,104.692 66.880 C 106.353 62.746,110.881 50.610,117.475 32.612 C 126.152 8.928,124.972 11.111,129.099 11.111 C 132.153 11.111,132.573 11.392,133.757 14.227 M182.692 31.755 C 189.861 43.107,195.743 52.049,195.763 51.625 C 195.783 51.201,195.879 42.009,195.977 31.197 L 196.154 11.538 200.214 11.278 L 204.274 11.017 204.274 39.744 L 204.274 68.470 200.358 68.209 L 196.442 67.949 183.905 48.126 C 177.009 37.223,171.079 28.281,170.726 28.254 C 170.374 28.227,170.085 37.265,170.085 48.337 L 170.085 68.470 166.026 68.209 L 161.966 67.949 161.740 40.606 C 161.481 9.224,161.208 11.111,165.999 11.113 L 169.658 11.114 182.692 31.755 M225.660 30.983 C 225.684 56.761,227.262 60.684,237.607 60.684 C 247.952 60.684,249.530 56.761,249.554 30.983 L 249.573 11.111 253.922 11.111 L 258.271 11.111 257.944 32.692 C 257.477 63.621,252.321 71.503,234.320 68.804 C 220.017 66.659,217.645 61.639,217.255 32.692 L 216.964 11.111 221.303 11.111 L 225.641 11.111 225.660 30.983 M296.206 24.573 C 298.920 31.976,303.575 44.531,306.553 52.472 C 313.050 69.802,312.975 68.523,307.479 68.207 L 302.991 67.949 301.282 62.818 C 298.730 55.157,299.481 55.556,287.607 55.556 C 275.738 55.556,276.504 55.150,273.901 62.821 L 272.161 67.949 267.705 68.207 C 265.253 68.349,263.248 68.222,263.248 67.925 C 263.248 67.442,275.693 33.271,281.683 17.308 L 284.008 11.111 287.641 11.111 L 291.273 11.111 296.206 24.573 M329.060 35.897 L 329.060 60.684 343.162 60.684 L 357.265 60.684 357.265 64.530 L 357.265 68.376 338.889 68.376 L 320.513 68.376 320.513 39.744 L 320.513 11.111 324.786 11.111 L 329.060 11.111 329.060 35.897 M124.766 35.182 C 122.662 41.346,120.812 46.721,120.655 47.126 C 120.499 47.532,124.290 47.863,129.080 47.863 C 137.034 47.863,137.738 47.733,137.190 46.368 C 136.860 45.545,135.059 40.449,133.188 35.043 C 131.316 29.637,129.517 24.935,129.188 24.595 C 128.860 24.254,126.870 29.019,124.766 35.182 M283.879 33.732 C 281.943 39.189,280.121 44.601,279.830 45.759 L 279.302 47.863 287.514 47.863 C 292.031 47.863,295.728 47.575,295.731 47.222 C 295.738 46.106,288.645 25.245,288.009 24.512 C 287.674 24.126,285.816 28.275,283.879 33.732 " stroke="none" fill="#FFFFFF" fill-rule="evenodd"></path></g></svg>