<svg id="svg" xmlns="http://www.w3.org/2000/svg" xmlns:xlink="http://www.w3.org/1999/xlink" width="468" height="94" viewBox="0, 0, 400,80.34188034188034"><g id="svgg"><path id="path0" d="M0.000 40.171 L 0.000 80.342 200.000 80.342 L 400.000 80.342 400.000 40.171 L 400.000 0.000 200.000 0.000 L 0.000 0.000 0.000 40.171 M164.957 14.957 L 164.957 18.803 150.855 18.803 L 136.752 18.803 136.752 27.350 L 136.752 35.897 148.718 35.897 L 160.684 35.897 160.684 39.744 L 160.684 43.590 148.687 43.590 L 136.690 43.590 136.935 51.923 L 137.179 60.256 151.068 60.491 L 164.957 60.726 164.957 64.551 L 164.957 68.376 146.581 68.376 L 128.205 68.376 128.205 39.744 L 128.205 11.111 146.581 11.111 L 164.957 11.111 164.957 14.957 M185.722 20.963 C 191.638 30.952,192.546 31.916,193.546 29.274 C 193.857 28.451,196.302 24.035,198.979 19.460 L 203.846 11.142 208.425 11.126 C 213.986 11.108,214.258 10.065,204.571 25.929 C 200.505 32.587,197.032 38.305,196.853 38.637 C 196.674 38.969,200.193 45.185,204.673 52.452 C 215.257 69.621,214.937 68.532,209.298 68.211 L 204.701 67.949 198.718 57.962 C 195.427 52.469,192.500 47.746,192.212 47.467 C 191.925 47.189,188.912 51.779,185.518 57.668 L 179.346 68.376 174.716 68.376 C 169.036 68.376,168.602 70.095,178.311 54.127 C 182.835 46.686,186.700 40.177,186.899 39.661 C 187.098 39.146,183.589 32.806,179.101 25.573 C 169.515 10.126,169.764 11.105,175.427 11.134 L 179.915 11.156 185.722 20.963 M230.769 39.744 L 230.769 68.376 226.496 68.376 L 222.222 68.376 222.222 39.744 L 222.222 11.111 226.496 11.111 L 230.769 11.111 230.769 39.744 M280.342 14.925 L 280.342 18.739 272.436 18.985 L 264.530 19.231 264.303 43.803 L 264.076 68.376 260.256 68.376 L 256.436 68.376 256.210 43.803 L 255.983 19.231 248.077 18.985 L 240.171 18.739 240.171 14.925 L 240.171 11.111 260.256 11.111 L 280.342 11.111 280.342 14.925 " stroke="none" fill="#FFFFFF" fill-rule="evenodd"></path></g></svg>