<svg id="svg" xmlns="http://www.w3.org/2000/svg" xmlns:xlink="http://www.w3.org/1999/xlink" width="468" height="94" viewBox="0, 0, 400,80.34188034188034"><g id="svgg"><path id="path0" d="M38.336 10.694 C 22.238 15.851,24.139 37.528,41.026 41.357 C 56.256 44.811,58.120 45.914,58.120 51.470 C 58.120 60.646,43.508 62.897,31.851 55.515 C 30.115 54.416,24.972 58.203,24.832 60.684 C 24.764 61.878,31.495 65.162,37.248 66.740 C 53.615 71.230,66.616 64.168,66.653 50.767 C 66.678 41.349,62.289 37.572,47.372 34.174 C 38.596 32.174,35.897 30.167,35.897 25.641 C 35.897 17.921,48.143 14.634,57.438 19.858 L 60.849 21.775 62.947 19.336 C 65.800 16.020,65.272 14.597,60.256 12.084 C 54.908 9.405,44.434 8.740,38.336 10.694 M301.282 10.433 C 291.483 13.858,288.908 19.735,288.897 38.703 C 288.885 59.478,291.830 64.749,305.032 67.581 C 319.206 70.620,329.060 60.544,329.060 43.007 L 329.060 35.897 319.231 35.897 C 313.300 35.897,309.371 36.236,309.324 36.752 C 309.281 37.222,309.246 38.761,309.246 40.171 C 309.246 41.581,309.281 43.120,309.324 43.590 C 309.367 44.064,311.875 44.444,314.957 44.444 L 320.513 44.444 320.513 46.953 C 320.513 58.807,305.774 64.275,299.390 54.788 C 296.620 50.671,296.414 27.755,299.108 23.337 C 303.808 15.629,313.484 15.746,318.099 23.567 C 320.093 26.946,328.205 28.171,328.205 25.094 C 328.205 14.944,312.634 6.465,301.282 10.433 M351.080 10.203 C 339.818 13.833,335.102 28.450,342.674 36.261 C 346.289 39.991,347.279 40.365,362.186 43.633 C 369.431 45.221,372.277 50.830,368.363 55.806 C 364.539 60.667,353.047 61.173,345.598 56.808 L 341.555 54.438 339.154 57.315 C 336.171 60.888,336.151 60.694,339.761 63.152 C 352.190 71.617,372.735 68.539,377.456 57.506 C 382.111 46.625,376.533 38.478,362.064 35.029 C 357.779 34.008,353.668 33.012,352.928 32.816 C 350.106 32.068,347.863 29.036,347.863 25.969 C 347.863 17.574,361.408 14.334,370.234 20.619 L 372.536 22.258 374.729 19.381 C 377.750 15.421,377.587 14.981,372.101 12.296 C 366.905 9.754,355.881 8.656,351.080 10.203 M77.125 38.675 L 77.350 67.094 95.726 67.094 L 114.103 67.094 114.103 63.248 L 114.103 59.402 99.786 59.167 L 85.470 58.933 85.470 50.834 L 85.470 42.735 97.436 42.735 L 109.402 42.735 109.402 38.913 L 109.402 35.091 97.650 34.853 L 85.897 34.615 85.653 26.303 L 85.409 17.990 99.756 17.756 L 114.103 17.521 114.365 13.889 L 114.628 10.256 95.764 10.256 L 76.900 10.256 77.125 38.675 M118.803 14.103 L 118.803 17.949 126.910 17.949 L 135.017 17.949 135.243 42.521 L 135.470 67.094 139.316 67.094 L 143.162 67.094 143.389 42.553 L 143.616 18.013 151.390 17.767 L 159.165 17.521 159.339 13.889 L 159.514 10.256 139.158 10.256 L 118.803 10.256 118.803 14.103 M163.248 14.103 L 163.248 17.949 171.354 17.949 L 179.461 17.949 179.688 42.521 L 179.915 67.094 183.761 67.094 L 187.607 67.094 187.834 42.521 L 188.060 17.949 196.167 17.949 L 204.274 17.949 204.274 14.103 L 204.274 10.256 183.761 10.256 L 163.248 10.256 163.248 14.103 M211.313 38.675 L 211.538 67.094 215.598 67.355 L 219.658 67.615 219.658 38.936 L 219.658 10.256 215.373 10.256 L 211.088 10.256 211.313 38.675 M233.535 38.675 L 233.761 67.094 237.607 67.094 L 241.453 67.094 241.682 47.222 C 241.824 34.949,242.233 27.350,242.751 27.350 C 243.212 27.350,243.592 27.639,243.594 27.991 C 243.597 28.344,249.126 37.286,255.882 47.863 L 268.165 67.094 271.903 67.094 L 275.641 67.094 275.866 38.675 L 276.091 10.256 271.822 10.256 L 267.552 10.256 267.323 30.556 L 267.094 50.855 254.284 30.556 L 241.473 10.256 237.392 10.256 L 233.310 10.256 233.535 38.675 " stroke="none" fill="#FFFFFF" fill-rule="evenodd"></path></g></svg>