<svg id="svg" xmlns="http://www.w3.org/2000/svg" xmlns:xlink="http://www.w3.org/1999/xlink" width="468" height="94" viewBox="0, 0, 400,80.34188034188034"><g id="svgg"><path id="path0" d="M249.474 11.436 C 239.142 15.128,236.325 21.193,236.325 39.744 C 236.325 61.377,241.418 68.723,256.410 68.716 C 271.480 68.710,276.923 61.027,276.923 39.763 C 276.923 16.322,266.346 5.406,249.474 11.436 M73.504 39.744 L 73.504 68.409 92.094 68.179 L 110.684 67.949 110.684 64.530 L 110.684 61.111 96.581 60.684 L 82.479 60.256 82.234 51.923 L 81.989 43.590 94.463 43.590 L 106.936 43.590 106.673 39.957 L 106.410 36.325 94.231 36.088 L 82.051 35.851 82.051 27.348 L 82.051 18.845 96.368 18.610 L 110.684 18.376 110.684 14.957 L 110.684 11.538 92.094 11.308 L 73.504 11.078 73.504 39.744 M121.756 12.187 C 121.529 12.779,121.445 25.567,121.569 40.606 L 121.795 67.949 134.643 67.949 C 149.731 67.949,153.877 66.556,158.539 59.922 L 161.111 56.263 161.111 39.744 L 161.111 23.224 158.542 19.518 C 153.887 12.803,149.034 11.111,134.435 11.111 C 125.365 11.111,122.061 11.391,121.756 12.187 M173.504 39.744 L 173.504 68.376 177.778 68.376 L 182.051 68.376 182.051 39.744 L 182.051 11.111 177.778 11.111 L 173.504 11.111 173.504 39.744 M190.598 14.957 L 190.598 18.803 198.718 18.803 L 206.838 18.803 206.838 43.590 L 206.838 68.376 211.098 68.376 L 215.358 68.376 215.585 43.803 L 215.812 19.231 223.718 18.985 L 231.624 18.739 231.624 14.925 L 231.624 11.111 211.111 11.111 L 190.598 11.111 190.598 14.957 M288.889 39.790 L 288.889 68.470 292.949 68.209 L 297.009 67.949 297.151 56.410 L 297.293 44.872 303.003 44.872 L 308.713 44.872 314.667 56.624 L 320.621 68.376 325.268 68.376 C 327.824 68.376,329.915 68.004,329.915 67.550 C 329.915 66.611,319.809 47.015,318.683 45.769 C 317.368 44.315,317.902 43.173,320.417 42.060 C 328.273 38.582,330.657 24.324,324.657 16.696 C 320.923 11.949,317.612 11.111,302.598 11.111 L 288.889 11.111 288.889 39.790 M146.646 20.423 C 152.328 23.004,153.166 25.807,152.839 41.137 L 152.564 53.982 149.451 56.832 C 146.134 59.871,140.838 61.121,133.761 60.538 L 130.342 60.256 130.113 39.530 L 129.884 18.803 136.523 18.822 C 141.127 18.835,144.230 19.326,146.646 20.423 M262.847 20.529 C 271.128 25.647,270.864 53.143,262.480 58.744 C 251.917 65.800,245.299 58.481,245.299 39.744 C 245.299 20.921,251.859 13.738,262.847 20.529 M315.323 20.054 C 319.380 22.151,320.290 29.503,317.010 33.673 C 315.245 35.917,315.073 35.950,306.250 35.712 L 297.284 35.470 297.323 27.564 C 297.344 23.216,297.378 19.466,297.399 19.231 C 297.492 18.161,313.043 18.875,315.323 20.054 " stroke="none" fill="#FFFFFF" fill-rule="evenodd"></path></g></svg>