<svg id="svg" xmlns="http://www.w3.org/2000/svg" xmlns:xlink="http://www.w3.org/1999/xlink" width="468" height="94" viewBox="0, 0, 400,80.34188034188034"><g id="svgg"><path id="path0" d="M0.000 40.171 L 0.000 80.342 200.000 80.342 L 400.000 80.342 400.000 40.171 L 400.000 0.000 200.000 0.000 L 0.000 0.000 0.000 40.171 M176.668 12.953 C 186.713 15.482,190.598 23.437,190.598 41.472 C 190.598 62.737,185.155 70.419,170.085 70.426 C 155.093 70.432,150.000 63.086,150.000 41.453 C 150.000 17.628,158.625 8.410,176.668 12.953 M112.821 37.607 L 112.821 62.393 126.923 62.393 L 141.026 62.393 141.026 66.239 L 141.026 70.085 122.650 70.085 L 104.274 70.085 104.274 41.453 L 104.274 12.821 108.547 12.821 L 112.821 12.821 112.821 37.607 M227.775 15.936 C 228.491 17.650,229.633 20.630,230.314 22.560 C 230.995 24.490,235.039 35.491,239.302 47.009 C 243.565 58.526,247.139 68.333,247.244 68.803 C 247.350 69.274,245.455 69.773,243.034 69.914 L 238.632 70.169 236.552 63.931 L 234.473 57.692 223.077 57.692 L 211.681 57.692 209.615 63.889 L 207.550 70.085 202.829 70.085 C 198.673 70.085,198.180 69.906,198.709 68.590 C 200.370 64.455,204.898 52.319,211.492 34.321 C 220.169 10.638,218.989 12.821,223.116 12.821 C 226.170 12.821,226.590 13.102,227.775 15.936 M285.470 15.575 C 294.017 19.807,295.726 24.205,295.726 41.961 C 295.726 65.537,291.291 70.062,268.162 70.077 L 255.556 70.085 255.556 42.023 C 255.556 26.588,255.839 13.677,256.185 13.331 C 258.026 11.490,280.735 13.231,285.470 15.575 M163.865 22.338 C 158.867 26.066,156.463 49.075,160.298 56.490 C 164.472 64.562,176.300 64.006,180.554 55.539 C 182.618 51.431,182.705 32.437,180.683 27.384 C 178.117 20.970,169.261 18.313,163.865 22.338 M264.103 41.880 L 264.103 62.393 270.974 62.393 C 284.829 62.393,287.179 59.386,287.179 41.661 C 287.179 23.926,285.239 21.403,271.581 21.380 L 264.103 21.368 264.103 41.880 M218.783 36.892 C 216.679 43.056,214.829 48.430,214.672 48.836 C 214.516 49.241,218.307 49.573,223.097 49.573 C 231.051 49.573,231.755 49.443,231.207 48.077 C 230.877 47.254,229.076 42.158,227.205 36.752 C 225.333 31.346,223.534 26.645,223.205 26.304 C 222.877 25.964,220.887 30.728,218.783 36.892 " stroke="none" fill="#FFFFFF" fill-rule="evenodd"></path></g></svg>