<svg id="svg" xmlns="http://www.w3.org/2000/svg" xmlns:xlink="http://www.w3.org/1999/xlink" width="468" height="94" viewBox="0, 0, 400,80.34188034188034"><g id="svgg"><path id="path0" d="M163.150 13.145 C 152.817 16.837,150.000 22.902,150.000 41.453 C 150.000 63.086,155.093 70.432,170.085 70.426 C 185.155 70.419,190.598 62.737,190.598 41.472 C 190.598 18.032,180.021 7.116,163.150 13.145 M104.274 41.453 L 104.274 70.085 122.650 70.085 L 141.026 70.085 141.026 66.239 L 141.026 62.393 126.923 62.393 L 112.821 62.393 112.821 37.607 L 112.821 12.821 108.547 12.821 L 104.274 12.821 104.274 41.453 M219.280 13.595 C 219.017 14.021,215.512 23.348,211.492 34.321 C 204.898 52.319,200.370 64.455,198.709 68.590 C 198.180 69.906,198.673 70.085,202.829 70.085 L 207.550 70.085 209.615 63.889 L 211.681 57.692 223.077 57.692 L 234.473 57.692 236.552 63.931 L 238.632 70.169 243.034 69.914 C 245.455 69.773,247.350 69.274,247.244 68.803 C 247.139 68.333,243.565 58.526,239.302 47.009 C 235.039 35.491,230.995 24.490,230.314 22.560 C 227.002 13.171,226.743 12.821,223.116 12.821 C 221.270 12.821,219.544 13.169,219.280 13.595 M256.185 13.331 C 255.839 13.677,255.556 26.588,255.556 42.023 L 255.556 70.085 268.162 70.077 C 291.291 70.062,295.726 65.537,295.726 41.961 C 295.726 18.103,291.441 13.491,268.792 12.974 C 262.204 12.824,256.531 12.984,256.185 13.331 M176.522 22.239 C 184.803 27.356,184.539 54.853,176.156 60.453 C 165.593 67.510,158.974 60.191,158.974 41.453 C 158.974 22.631,165.534 15.448,176.522 22.239 M281.171 22.461 C 286.190 25.000,287.179 28.163,287.179 41.661 C 287.179 59.386,284.829 62.393,270.974 62.393 L 264.103 62.393 264.103 41.880 L 264.103 21.368 271.581 21.380 C 275.842 21.387,279.968 21.852,281.171 22.461 M227.205 36.752 C 229.076 42.158,230.877 47.254,231.207 48.077 C 231.755 49.443,231.051 49.573,223.097 49.573 C 218.307 49.573,214.516 49.241,214.672 48.836 C 214.829 48.430,216.679 43.056,218.783 36.892 C 220.887 30.728,222.877 25.964,223.205 26.304 C 223.534 26.645,225.333 31.346,227.205 36.752 " stroke="none" fill="#FFFFFF" fill-rule="evenodd"></path></g></svg>