<svg id="svg" xmlns="http://www.w3.org/2000/svg" xmlns:xlink="http://www.w3.org/1999/xlink" width="468" height="94" viewBox="0, 0, 400,80.34188034188034"><g id="svgg"><path id="path0" d="M103.709 11.427 C 95.471 14.132,92.308 18.610,92.308 27.567 C 92.308 36.991,96.167 40.680,108.670 43.204 C 120.422 45.577,124.346 48.758,122.468 54.392 C 120.070 61.584,107.333 63.287,97.785 57.692 L 94.159 55.567 91.952 58.191 C 89.083 61.599,89.144 61.978,92.949 64.457 C 106.470 73.265,128.147 68.838,130.404 56.808 C 132.693 44.604,127.972 38.925,112.884 35.733 C 102.071 33.445,98.399 29.860,100.838 23.971 C 103.199 18.273,113.353 16.668,121.173 20.757 L 125.434 22.985 127.644 19.878 C 130.280 16.173,129.893 15.466,123.786 12.839 C 118.310 10.484,108.652 9.804,103.709 11.427 M134.188 14.942 L 134.188 18.803 142.308 18.803 L 150.427 18.803 150.427 43.590 L 150.427 68.376 154.701 68.376 L 158.974 68.376 158.974 43.622 L 158.974 18.868 166.811 18.622 L 174.648 18.376 174.646 14.957 L 174.645 11.538 154.416 11.309 L 134.188 11.080 134.188 14.942 M192.116 17.308 C 190.897 20.716,186.211 33.459,181.702 45.625 C 177.193 57.792,173.504 67.908,173.504 68.106 C 173.504 68.304,175.516 68.349,177.974 68.207 L 182.443 67.949 184.618 61.966 L 186.793 55.983 197.974 55.745 L 209.155 55.508 211.045 60.873 C 212.085 63.825,213.090 66.720,213.279 67.308 C 213.633 68.412,222.222 68.893,222.222 67.808 C 222.222 67.230,205.136 20.167,202.802 14.316 C 201.608 11.323,201.286 11.111,197.928 11.111 L 194.333 11.111 192.116 17.308 M230.769 39.688 L 230.769 68.376 235.043 68.376 L 239.316 68.376 239.316 56.410 L 239.316 44.444 245.085 44.456 L 250.855 44.467 256.881 56.208 L 262.907 67.949 267.778 68.205 C 273.514 68.507,273.422 68.788,269.779 62.105 C 268.200 59.208,265.328 53.899,263.398 50.308 L 259.888 43.778 263.260 41.546 C 272.436 35.474,272.723 21.269,263.812 14.157 L 260.531 11.538 245.650 11.270 L 230.769 11.001 230.769 39.688 M275.214 14.942 L 275.214 18.803 283.320 18.803 L 291.427 18.803 291.654 43.376 L 291.880 67.949 295.726 67.949 L 299.573 67.949 299.799 43.376 L 300.026 18.803 308.182 18.803 L 316.338 18.803 316.075 15.171 L 315.812 11.538 295.513 11.309 L 275.214 11.080 275.214 14.942 M258.400 20.550 C 262.205 23.543,262.493 30.669,258.953 34.210 C 257.487 35.676,256.087 35.897,248.291 35.897 L 239.316 35.897 239.316 27.350 L 239.316 18.803 247.748 18.803 C 254.945 18.803,256.505 19.059,258.400 20.550 M202.458 35.899 C 204.396 41.775,205.983 46.872,205.983 47.223 C 205.983 47.575,202.288 47.863,197.772 47.863 C 191.563 47.863,189.657 47.603,189.954 46.795 C 190.170 46.207,191.985 40.789,193.987 34.754 C 195.989 28.719,197.921 24.104,198.280 24.498 C 198.639 24.891,200.519 30.022,202.458 35.899 " stroke="none" fill="#FFFFFF" fill-rule="evenodd"></path></g></svg>