<svg id="svg" xmlns="http://www.w3.org/2000/svg" xmlns:xlink="http://www.w3.org/1999/xlink" width="1650" height="329.116296863" viewBox="0, 0, 400,79.78576893649578" version="1.1"><g id="svgg"><path id="path0" d="M136.603 0.021 C 133.403 0.428,131.387 3.166,132.122 6.106 C 132.427 7.325,132.681 7.739,133.952 9.085 C 135.063 10.262,135.180 10.414,135.089 10.559 C 135.063 10.599,134.278 10.606,128.425 10.620 L 121.790 10.635 121.783 13.550 L 121.775 16.465 129.694 16.465 C 138.663 16.465,138.436 16.470,139.215 16.234 C 142.377 15.274,143.727 11.251,141.838 8.417 C 141.628 8.101,141.644 8.120,140.428 6.800 C 139.281 5.554,139.276 5.548,139.287 5.452 L 139.296 5.371 143.129 5.363 L 146.963 5.356 146.963 10.910 L 146.963 16.465 149.901 16.465 L 152.839 16.465 152.839 10.926 L 152.839 5.386 156.389 5.386 L 159.939 5.386 159.939 3.497 C 159.939 2.457,159.948 1.245,159.959 0.803 L 159.979 0.000 148.337 0.005 C 141.934 0.007,136.653 0.014,136.603 0.021 M162.529 0.054 C 162.461 0.286,157.638 16.397,157.628 16.427 C 157.617 16.458,158.235 16.464,160.696 16.458 L 163.778 16.450 164.134 15.287 L 164.491 14.124 167.288 14.116 L 170.084 14.109 170.356 14.999 C 170.506 15.489,170.668 16.019,170.717 16.177 L 170.806 16.465 173.789 16.465 C 175.429 16.465,176.771 16.458,176.771 16.450 C 176.771 16.442,175.671 12.858,174.326 8.486 C 172.981 4.113,171.844 0.415,171.799 0.268 L 171.718 -0.000 167.131 -0.000 C 162.789 -0.000,162.543 0.003,162.529 0.054 M177.812 8.232 L 177.812 16.465 181.086 16.465 L 184.361 16.465 184.361 14.166 L 184.361 11.867 185.226 12.713 C 187.642 15.077,188.031 15.448,188.250 15.599 C 188.751 15.942,189.452 16.228,190.162 16.379 L 190.497 16.450 195.647 16.458 L 200.796 16.467 200.788 13.551 L 200.780 10.635 196.572 10.620 L 192.364 10.604 192.182 10.536 C 191.652 10.336,191.671 10.196,192.282 9.786 C 193.754 8.798,194.405 7.920,194.712 6.508 C 194.814 6.039,194.814 4.794,194.712 4.290 C 194.286 2.188,192.627 0.646,190.207 0.101 L 189.824 0.015 183.818 0.007 L 177.812 -0.001 177.812 8.232 M203.092 0.084 C 203.151 0.261,208.110 16.434,208.110 16.449 C 208.110 16.458,209.355 16.465,210.878 16.465 L 213.645 16.465 213.676 16.366 C 213.694 16.311,214.123 14.917,214.630 13.268 C 215.137 11.619,215.559 10.258,215.569 10.242 C 215.578 10.227,216.016 11.617,216.542 13.332 L 217.498 16.450 220.300 16.458 L 223.101 16.466 223.133 16.366 C 223.587 14.947,228.064 0.102,228.064 0.017 C 228.064 0.008,226.663 0.000,224.950 0.000 L 221.836 0.000 221.165 2.188 C 220.796 3.392,220.485 4.376,220.475 4.376 C 220.464 4.376,220.153 3.392,219.784 2.188 L 219.113 -0.000 215.700 0.008 L 212.288 0.015 211.655 2.199 C 211.307 3.399,211.017 4.388,211.010 4.395 C 211.003 4.401,210.731 3.481,210.406 2.349 C 210.081 1.217,209.796 0.225,209.773 0.145 L 209.730 0.000 206.397 0.000 L 203.064 0.000 203.092 0.084 M230.820 0.073 C 230.769 0.207,225.922 16.394,225.922 16.430 C 225.922 16.456,226.687 16.465,228.990 16.465 L 232.058 16.465 232.424 15.272 L 232.790 14.078 235.577 14.078 L 238.364 14.078 238.730 15.272 L 239.097 16.465 242.073 16.465 C 244.302 16.465,245.050 16.456,245.050 16.430 C 245.050 16.403,240.408 1.304,240.072 0.237 L 239.997 0.000 235.423 0.000 L 230.848 0.000 230.820 0.073 M246.458 8.232 L 246.458 16.465 249.717 16.465 L 252.976 16.465 252.984 14.162 L 252.992 11.859 254.384 13.237 C 256.672 15.501,256.651 15.482,257.011 15.715 C 257.531 16.050,258.226 16.293,259.024 16.417 C 259.407 16.477,272.179 16.491,272.751 16.433 C 275.348 16.167,277.246 14.035,277.246 11.382 C 277.246 9.969,276.850 8.911,275.911 7.814 C 275.629 7.484,275.393 7.227,274.208 5.956 C 273.829 5.549,273.778 5.469,273.855 5.393 C 273.883 5.364,274.842 5.356,277.986 5.356 L 282.081 5.356 282.081 2.678 L 282.081 0.000 276.801 0.000 C 271.352 0.000,271.217 0.003,270.640 0.127 C 267.525 0.796,265.813 3.637,266.799 6.501 C 267.184 7.620,267.597 8.194,269.203 9.848 C 269.714 10.374,269.750 10.435,269.624 10.553 C 269.522 10.648,269.422 10.650,265.340 10.650 C 260.740 10.649,260.765 10.651,260.503 10.353 C 260.346 10.174,260.373 10.128,260.802 9.854 C 262.445 8.804,263.183 7.724,263.384 6.078 C 263.747 3.110,261.881 0.744,258.647 0.070 C 258.433 0.025,257.803 0.019,252.433 0.009 L 246.458 -0.002 246.458 8.232 M188.256 4.738 C 189.156 5.102,189.161 6.392,188.263 6.669 C 188.065 6.731,187.993 6.733,186.240 6.733 L 184.422 6.733 184.422 5.691 L 184.422 4.650 186.251 4.658 L 188.080 4.667 188.256 4.738 M256.946 4.786 C 257.731 5.148,257.758 6.256,256.992 6.632 L 256.817 6.718 254.927 6.726 L 253.037 6.735 253.037 5.708 L 253.037 4.681 254.897 4.689 L 256.756 4.698 256.946 4.786 M236.278 7.315 C 236.659 8.552,236.970 9.575,236.970 9.587 C 236.970 9.600,236.344 9.610,235.578 9.610 C 234.643 9.610,234.185 9.599,234.185 9.578 C 234.185 9.561,234.459 8.655,234.795 7.566 C 235.130 6.477,235.441 5.464,235.486 5.315 C 235.531 5.166,235.572 5.049,235.577 5.055 C 235.582 5.060,235.898 6.077,236.278 7.315 M167.997 7.336 C 168.378 8.576,168.686 9.595,168.680 9.601 C 168.675 9.606,168.044 9.607,167.277 9.602 L 165.884 9.594 166.576 7.338 C 166.957 6.096,167.276 5.081,167.286 5.080 C 167.295 5.080,167.615 6.095,167.997 7.336 M114.491 12.609 C 113.721 12.649,109.656 12.707,98.210 12.838 C 91.513 12.915,87.655 12.961,85.279 12.992 C 84.555 13.002,81.760 13.036,79.067 13.069 C 76.373 13.102,72.538 13.150,70.543 13.175 C 64.666 13.249,59.735 13.309,52.869 13.388 C 50.765 13.413,48.534 13.441,47.911 13.451 C 46.714 13.469,44.088 13.502,31.875 13.649 C 24.679 13.736,19.864 13.794,13.879 13.864 C -1.725 14.047,-3.834 14.172,5.861 14.338 C 8.884 14.390,12.334 14.454,15.746 14.522 C 18.228 14.571,20.998 14.624,26.106 14.720 C 27.898 14.754,30.033 14.795,30.849 14.813 C 31.666 14.830,34.062 14.878,36.174 14.919 C 38.287 14.960,40.360 15.002,40.780 15.012 C 41.201 15.022,43.350 15.063,45.555 15.105 C 47.760 15.146,50.266 15.194,51.125 15.210 C 51.983 15.227,53.787 15.262,55.134 15.287 C 56.480 15.312,58.601 15.354,59.847 15.379 C 61.093 15.404,63.861 15.459,65.998 15.501 C 68.136 15.543,70.925 15.598,72.196 15.623 C 73.467 15.648,75.588 15.690,76.909 15.715 C 78.230 15.740,80.021 15.775,80.888 15.792 C 81.754 15.809,85.342 15.879,88.860 15.946 C 92.378 16.013,96.634 16.095,98.317 16.128 C 115.414 16.469,116.122 16.476,116.167 16.316 C 116.192 16.228,116.187 12.642,116.162 12.617 C 116.134 12.589,114.973 12.583,114.491 12.609 M281.493 12.600 C 281.366 12.620,281.358 12.941,281.477 13.282 C 281.499 13.347,281.514 13.565,281.515 13.833 C 281.515 14.623,281.289 15.234,280.760 15.873 C 280.514 16.169,280.429 16.325,280.484 16.380 C 280.560 16.456,283.636 16.420,293.940 16.221 C 294.816 16.204,296.661 16.169,298.041 16.144 C 299.422 16.118,301.288 16.084,302.188 16.067 C 303.089 16.050,304.569 16.023,305.478 16.006 C 308.968 15.942,310.543 15.912,312.731 15.868 C 313.977 15.844,315.754 15.810,316.679 15.793 C 317.605 15.776,318.700 15.755,319.112 15.746 C 319.525 15.736,320.978 15.708,322.341 15.683 C 323.705 15.659,325.860 15.618,327.131 15.593 C 328.402 15.568,330.585 15.527,331.982 15.501 C 333.379 15.476,335.231 15.441,336.098 15.425 C 337.930 15.389,343.384 15.286,345.800 15.241 C 347.866 15.203,349.810 15.166,353.864 15.088 C 355.598 15.055,358.132 15.006,359.495 14.981 C 361.812 14.937,362.938 14.916,369.059 14.797 C 370.363 14.772,372.567 14.731,373.956 14.706 C 375.344 14.680,377.197 14.646,378.072 14.629 C 378.947 14.612,380.772 14.577,382.127 14.552 C 383.482 14.527,385.692 14.486,387.039 14.461 C 388.386 14.436,390.300 14.401,391.293 14.385 C 398.188 14.268,399.969 14.223,399.969 14.166 C 399.969 14.151,399.959 14.139,399.946 14.139 C 399.934 14.139,399.744 14.126,399.526 14.110 C 398.425 14.029,393.584 13.943,384.836 13.849 C 382.546 13.825,380.095 13.797,379.388 13.788 C 378.681 13.778,376.884 13.757,375.394 13.740 C 373.904 13.724,371.060 13.690,369.074 13.665 C 367.088 13.640,363.679 13.599,361.500 13.573 C 357.487 13.527,352.064 13.461,347.513 13.405 C 343.185 13.352,340.085 13.314,337.353 13.282 C 335.897 13.265,333.569 13.238,332.181 13.221 C 330.792 13.204,328.478 13.177,327.039 13.160 C 322.550 13.107,314.639 13.014,306.259 12.915 C 304.819 12.898,302.375 12.871,300.826 12.854 C 288.533 12.720,284.449 12.664,282.863 12.608 C 282.009 12.578,281.650 12.576,281.493 12.600 M1.591 53.442 C 1.591 67.361,1.581 74.776,1.560 75.057 C 1.430 76.866,0.963 78.082,0.197 78.610 L 0.023 78.730 7.028 78.739 C 14.111 78.749,14.722 78.742,15.930 78.636 C 22.565 78.054,28.457 75.242,32.212 70.865 C 39.096 62.838,39.783 51.354,33.904 42.548 C 30.117 36.875,23.157 32.872,16.113 32.318 C 14.007 32.152,12.020 32.317,8.340 32.965 C 5.622 33.444,4.549 33.579,3.995 33.512 C 3.222 33.419,2.545 33.097,1.870 32.501 L 1.591 32.256 1.591 53.442 M86.419 53.627 C 86.411 73.666,86.407 75.024,86.357 75.440 C 86.156 77.123,85.718 78.138,84.974 78.642 L 84.821 78.745 91.687 78.745 L 98.553 78.745 98.374 78.612 C 97.494 77.961,97.071 76.724,96.985 74.552 C 96.926 73.045,96.947 60.682,97.008 60.701 C 97.038 60.710,97.294 60.787,97.579 60.873 C 102.708 62.420,106.852 65.646,108.585 69.441 C 109.958 72.449,110.196 76.733,109.090 78.527 L 108.955 78.745 116.271 78.745 L 123.587 78.745 123.120 78.263 C 122.191 77.306,121.741 76.270,121.286 74.044 C 120.271 69.082,119.001 65.653,117.145 62.862 C 114.832 59.382,112.425 57.427,109.556 56.694 C 109.041 56.562,108.957 56.491,109.265 56.449 C 112.061 56.068,113.815 53.750,114.304 49.793 C 114.788 45.884,114.178 42.266,112.564 39.464 C 110.213 35.383,106.370 32.976,101.285 32.397 C 100.173 32.271,98.389 32.230,97.552 32.312 C 96.425 32.421,95.221 32.597,93.622 32.887 C 90.922 33.375,89.801 33.517,89.151 33.453 C 88.201 33.359,87.346 33.005,86.596 32.394 L 86.428 32.257 86.419 53.627 M234.063 32.278 C 228.926 32.468,224.229 34.116,220.214 37.134 C 213.630 42.085,210.342 48.851,210.621 56.874 C 210.863 63.832,213.648 69.457,219.120 74.035 C 224.700 78.703,231.787 80.612,239.265 79.462 C 248.190 78.089,256.119 71.389,258.638 63.091 C 259.663 59.714,259.922 55.745,259.355 52.090 C 258.463 46.333,255.502 41.439,250.540 37.521 C 245.852 33.819,240.282 32.047,234.063 32.278 M265.424 53.627 C 265.416 73.666,265.412 75.024,265.363 75.440 C 265.162 77.123,264.723 78.138,263.979 78.642 L 263.826 78.745 270.692 78.745 L 277.558 78.745 277.379 78.612 C 276.499 77.961,276.076 76.724,275.991 74.552 C 275.931 73.045,275.952 60.682,276.014 60.701 C 276.043 60.710,276.300 60.787,276.584 60.873 C 281.713 62.420,285.857 65.646,287.590 69.441 C 288.963 72.449,289.201 76.733,288.095 78.527 L 287.961 78.745 295.277 78.745 L 302.593 78.745 302.125 78.263 C 301.196 77.306,300.746 76.270,300.291 74.044 C 299.276 69.082,298.007 65.653,296.151 62.862 C 293.837 59.382,291.431 57.427,288.562 56.694 C 288.047 56.562,287.962 56.491,288.271 56.449 C 291.066 56.068,292.821 53.750,293.310 49.793 C 293.793 45.884,293.183 42.266,291.569 39.464 C 289.218 35.383,285.376 32.976,280.291 32.397 C 279.179 32.271,277.394 32.230,276.557 32.312 C 275.430 32.421,274.227 32.597,272.627 32.887 C 269.927 33.375,268.807 33.517,268.156 33.453 C 267.206 33.359,266.352 33.005,265.601 32.394 L 265.433 32.257 265.424 53.627 M325.922 32.278 C 319.331 32.501,313.827 34.797,309.490 39.131 C 304.832 43.787,302.561 49.824,302.801 56.918 C 303.017 63.314,305.141 68.465,309.319 72.728 C 314.661 78.178,321.750 80.475,330.436 79.570 C 331.017 79.510,331.386 79.464,333.879 79.143 C 335.256 78.965,335.658 78.934,335.873 78.988 C 336.119 79.049,336.639 79.282,337.075 79.525 C 337.301 79.652,337.498 79.755,337.511 79.755 C 337.525 79.755,337.536 76.526,337.536 72.578 C 337.536 68.631,337.531 65.402,337.525 65.402 C 337.518 65.402,337.315 65.551,337.073 65.732 C 333.149 68.681,328.537 69.821,324.116 68.935 C 319.316 67.973,315.350 64.187,314.186 59.455 C 313.641 57.238,313.658 54.458,314.231 52.095 C 315.444 47.102,319.534 43.609,324.953 42.940 C 329.405 42.390,333.403 43.625,337.027 46.668 C 337.290 46.889,337.512 47.070,337.521 47.070 C 337.529 47.070,337.536 43.736,337.536 39.661 L 337.536 32.253 337.325 32.443 C 336.434 33.240,335.424 33.629,334.546 33.513 C 334.165 33.462,333.241 33.270,332.119 33.008 C 329.314 32.352,328.067 32.205,325.922 32.278 M384.254 32.291 C 378.008 32.712,373.683 37.274,373.219 43.932 C 372.960 47.649,374.124 50.570,376.990 53.395 C 377.799 54.193,379.153 55.211,381.989 57.153 C 384.280 58.722,385.398 59.663,386.485 60.933 C 389.367 64.304,387.929 68.951,383.749 69.774 C 380.295 70.455,376.986 68.858,373.775 64.962 L 373.451 64.569 373.443 72.152 C 373.439 76.322,373.442 79.742,373.450 79.750 C 373.459 79.758,373.628 79.688,373.825 79.595 C 375.318 78.887,376.174 78.858,379.495 79.401 C 382.257 79.852,383.898 79.889,386.305 79.553 C 394.551 78.401,399.485 72.317,398.962 63.948 C 398.748 60.526,397.526 57.491,395.284 54.812 C 394.208 53.525,392.163 51.839,389.472 50.018 C 385.336 47.219,384.075 45.843,384.191 44.258 C 384.298 42.800,385.256 42.130,387.238 42.129 C 389.415 42.127,391.129 42.935,393.887 45.263 L 394.002 45.360 394.002 38.809 L 394.002 32.257 393.938 32.257 C 393.902 32.257,393.803 32.319,393.716 32.396 C 392.886 33.123,391.580 33.191,388.768 32.654 C 386.967 32.311,385.596 32.200,384.254 32.291 M55.110 33.286 C 55.100 33.296,55.159 33.386,55.242 33.486 C 55.985 34.378,56.241 35.311,55.996 36.236 C 55.682 37.421,55.923 36.805,48.333 55.792 C 44.656 64.991,41.222 73.585,40.702 74.889 C 39.520 77.854,39.401 78.066,38.577 78.675 L 38.485 78.743 45.792 78.744 C 49.811 78.745,53.099 78.738,53.099 78.729 C 53.099 78.719,53.027 78.626,52.940 78.522 C 52.313 77.770,52.043 76.970,52.120 76.093 C 52.185 75.354,52.297 74.981,53.021 73.114 C 53.286 72.432,53.529 71.802,53.563 71.714 L 53.623 71.553 61.478 71.561 L 69.332 71.568 69.878 72.976 C 70.527 74.653,70.638 74.974,70.746 75.491 C 70.991 76.661,70.769 77.586,70.021 78.513 L 69.846 78.730 77.070 78.738 C 81.044 78.742,84.301 78.739,84.309 78.731 C 84.317 78.723,84.230 78.617,84.116 78.494 C 83.351 77.670,82.736 76.642,82.254 75.379 C 82.069 74.895,66.075 33.436,66.023 33.305 C 66.006 33.265,55.150 33.245,55.110 33.286 M123.856 33.293 C 123.856 33.307,123.887 33.333,123.925 33.350 C 124.755 33.729,125.316 35.225,125.418 37.330 C 125.481 38.614,125.442 74.901,125.378 75.440 C 125.177 77.122,124.738 78.138,123.994 78.642 L 123.842 78.745 130.708 78.745 L 137.574 78.745 137.394 78.612 C 136.514 77.961,136.092 76.724,136.006 74.552 C 135.977 73.820,135.961 60.505,135.990 60.505 C 136.169 60.505,138.693 61.741,139.711 62.328 C 146.066 65.987,149.179 71.282,148.528 77.322 C 148.490 77.676,148.450 78.140,148.440 78.355 L 148.422 78.745 155.163 78.745 L 161.903 78.745 161.651 78.559 C 160.171 77.461,159.323 75.604,157.230 68.875 C 156.695 67.155,156.518 66.642,156.089 65.570 C 153.489 59.071,149.132 55.188,143.359 54.226 L 142.953 54.159 143.010 54.095 C 143.119 53.974,158.244 35.635,158.561 35.241 C 158.943 34.764,159.879 33.825,160.268 33.527 C 160.422 33.409,160.549 33.303,160.549 33.290 C 160.550 33.277,156.805 33.267,152.226 33.267 C 147.648 33.267,143.902 33.274,143.902 33.283 C 143.902 33.293,144.004 33.444,144.128 33.619 C 144.668 34.382,144.938 35.159,144.803 35.569 C 144.590 36.220,143.306 38.366,141.051 41.838 C 140.708 42.367,139.456 44.319,138.270 46.174 C 136.428 49.056,136.103 49.548,136.042 49.548 L 135.972 49.549 135.985 43.313 C 135.999 36.995,135.999 36.948,136.114 36.129 C 136.298 34.816,136.797 33.787,137.443 33.389 C 137.510 33.347,137.566 33.303,137.566 33.290 C 137.567 33.277,134.482 33.267,130.712 33.267 C 126.941 33.267,123.856 33.279,123.856 33.293 M183.500 33.281 C 183.492 33.289,183.537 33.403,183.600 33.534 C 183.758 33.860,183.863 34.245,183.903 34.637 C 183.967 35.269,183.928 74.895,183.863 75.440 C 183.662 77.122,183.223 78.138,182.479 78.642 L 182.327 78.745 189.193 78.745 L 196.059 78.745 195.879 78.612 C 195.175 78.091,194.751 77.142,194.568 75.680 C 194.473 74.926,194.458 73.659,194.467 67.269 L 194.476 60.949 198.057 60.940 C 202.409 60.929,202.462 60.933,203.106 61.253 C 203.575 61.486,204.260 62.071,204.764 62.667 C 204.929 62.863,205.096 63.059,205.133 63.103 L 205.201 63.183 205.202 56.029 C 205.202 52.094,205.197 48.875,205.190 48.875 C 205.183 48.875,205.004 49.074,204.792 49.317 C 204.107 50.103,203.905 50.279,203.272 50.638 C 202.461 51.098,202.679 51.079,198.221 51.079 L 194.460 51.079 194.468 47.108 L 194.476 43.137 199.388 43.128 C 205.215 43.118,205.134 43.114,205.800 43.443 C 206.268 43.674,207.093 44.407,207.605 45.046 C 207.740 45.214,207.860 45.353,207.873 45.354 C 207.886 45.355,207.893 42.639,207.888 39.319 L 207.881 33.282 195.698 33.275 C 188.997 33.270,183.508 33.273,183.500 33.281 M341.658 33.287 C 341.602 33.343,341.653 33.422,341.813 33.528 C 342.781 34.167,343.305 35.436,343.413 37.399 C 343.476 38.541,343.438 74.897,343.373 75.440 C 343.173 77.122,342.734 78.138,341.990 78.642 L 341.837 78.745 355.739 78.745 L 369.640 78.745 369.640 72.716 C 369.640 69.400,369.633 66.687,369.624 66.687 C 369.616 66.687,369.478 66.823,369.319 66.989 C 368.479 67.864,367.481 68.454,366.396 68.718 C 365.667 68.896,365.859 68.891,359.662 68.891 L 353.971 68.891 353.978 64.920 L 353.986 60.949 357.567 60.940 C 361.919 60.929,361.972 60.933,362.617 61.253 C 363.085 61.486,363.770 62.071,364.274 62.667 C 364.440 62.863,364.606 63.059,364.643 63.103 L 364.711 63.183 364.712 56.029 C 364.713 52.094,364.707 48.875,364.700 48.875 C 364.693 48.875,364.514 49.074,364.302 49.317 C 363.617 50.103,363.415 50.279,362.783 50.638 C 361.971 51.098,362.189 51.079,357.732 51.079 L 353.971 51.079 353.978 47.108 L 353.986 43.137 359.311 43.128 C 362.818 43.122,364.793 43.130,365.094 43.151 C 366.686 43.264,368.019 43.891,369.136 45.055 L 369.426 45.357 369.426 39.312 L 369.426 33.267 355.552 33.267 C 347.921 33.267,341.669 33.276,341.658 33.287 M99.261 42.158 C 103.238 42.679,104.890 47.612,102.050 50.485 C 100.873 51.676,99.408 52.096,97.184 51.880 L 96.970 51.859 96.962 47.018 L 96.955 42.177 97.115 42.159 C 97.632 42.102,98.829 42.101,99.261 42.158 M278.266 42.158 C 282.243 42.679,283.896 47.612,281.056 50.485 C 279.878 51.676,278.413 52.096,276.190 51.880 L 275.976 51.859 275.968 47.018 L 275.960 42.177 276.121 42.159 C 276.638 42.102,277.834 42.101,278.266 42.158 M13.394 42.847 C 18.841 43.158,23.275 45.441,25.311 48.981 C 27.442 52.688,27.408 58.774,25.236 62.426 C 23.099 66.018,18.384 68.187,12.709 68.187 L 12.150 68.187 12.150 55.501 L 12.150 42.816 12.499 42.816 C 12.690 42.816,13.093 42.830,13.394 42.847 M236.205 42.847 C 240.673 43.155,244.073 45.100,246.472 48.719 C 250.350 54.570,248.950 62.484,243.286 66.722 C 238.897 70.006,231.696 70.091,227.221 66.911 C 220.947 62.453,219.726 53.649,224.553 47.666 C 227.009 44.622,230.026 43.114,234.216 42.835 C 234.566 42.812,235.806 42.819,236.205 42.847 M61.680 47.337 C 61.764 47.619,66.292 62.253,66.307 62.291 C 66.325 62.338,65.984 62.341,61.608 62.341 C 57.128 62.341,56.890 62.339,56.906 62.288 C 57.131 61.556,61.341 47.946,61.426 47.674 C 61.548 47.284,61.631 47.174,61.680 47.337 " stroke="none" fill="#FFFFFF" fill-rule="evenodd"></path></g></svg>
