<svg id="svg" xmlns="http://www.w3.org/2000/svg" xmlns:xlink="http://www.w3.org/1999/xlink" width="468" height="94" viewBox="0, 0, 400,80.34188034188034"><g id="svgg"><path id="path0" d="M0.000 40.171 L 0.000 80.342 200.000 80.342 L 400.000 80.342 400.000 40.171 L 400.000 0.000 200.000 0.000 L 0.000 0.000 0.000 40.171 M188.337 11.181 C 198.314 13.951,202.138 21.867,202.133 39.744 C 202.128 61.011,196.654 68.753,181.624 68.753 C 166.373 68.753,161.177 60.651,161.692 37.674 C 162.187 15.537,171.321 6.456,188.337 11.181 M291.026 11.167 C 300.372 13.632,302.870 16.186,299.841 20.184 C 298.813 21.540,297.910 22.751,297.834 22.876 C 297.758 23.000,296.003 22.165,293.933 21.019 C 284.705 15.910,272.650 18.996,272.650 26.467 C 272.650 31.967,275.033 33.556,287.334 36.256 C 301.364 39.336,307.238 48.992,301.693 59.862 C 296.598 69.849,278.322 72.157,265.206 64.471 C 260.892 61.942,260.893 61.948,264.073 58.229 L 266.538 55.347 268.953 57.042 C 276.357 62.239,291.056 61.943,293.948 56.539 C 296.941 50.947,293.651 46.055,285.813 44.440 C 271.243 41.439,267.663 39.633,265.482 34.182 C 259.458 19.128,273.440 6.531,291.026 11.167 M108.281 12.179 C 108.660 12.767,112.312 20.740,116.396 29.896 C 120.480 39.053,124.134 46.640,124.517 46.758 C 124.900 46.875,128.749 38.999,133.070 29.255 L 140.927 11.538 145.036 11.538 L 149.145 11.538 149.145 39.744 L 149.145 67.949 145.102 68.209 L 141.059 68.468 140.828 49.405 L 140.598 30.342 134.113 45.299 L 127.628 60.256 124.662 60.512 L 121.696 60.767 115.880 47.691 C 112.681 40.500,109.722 34.250,109.305 33.803 C 108.862 33.329,108.547 40.348,108.547 50.684 L 108.547 68.376 104.274 68.376 L 100.000 68.376 100.000 39.744 L 100.000 11.111 103.796 11.111 C 105.895 11.111,107.900 11.589,108.281 12.179 M244.181 13.466 C 252.009 17.624,253.846 22.583,253.846 39.558 C 253.846 63.787,249.262 68.376,225.059 68.376 L 213.675 68.376 213.675 39.668 L 213.675 10.961 227.137 11.262 C 239.069 11.528,241.005 11.779,244.181 13.466 M175.859 20.145 C 167.012 24.945,167.622 55.134,176.653 59.419 C 187.685 64.654,193.164 57.920,193.159 39.130 C 193.155 21.287,186.736 14.243,175.859 20.145 M222.647 19.784 C 222.395 20.440,222.293 29.815,222.419 40.617 L 222.650 60.256 229.487 60.215 C 242.911 60.132,245.299 57.073,245.299 39.960 C 245.299 26.503,244.492 23.629,239.962 20.953 C 236.369 18.830,223.350 17.951,222.647 19.784 " stroke="none" fill="#FFFFFF" fill-rule="evenodd"></path></g></svg>