<svg id="svg" xmlns="http://www.w3.org/2000/svg" xmlns:xlink="http://www.w3.org/1999/xlink" width="468" height="94" viewBox="0, 0, 400,80.34188034188034"><g id="svgg"><path id="path0" d="M0.000 40.171 L 0.000 80.342 200.000 80.342 L 400.000 80.342 400.000 40.171 L 400.000 0.000 200.000 0.000 L 0.000 0.000 0.000 40.171 M262.993 11.244 C 273.038 13.773,276.923 21.727,276.923 39.763 C 276.923 61.027,271.480 68.710,256.410 68.716 C 241.418 68.723,236.325 61.377,236.325 39.744 C 236.325 15.918,244.950 6.700,262.993 11.244 M110.684 14.957 L 110.684 18.376 96.368 18.610 L 82.051 18.845 82.051 27.348 L 82.051 35.851 94.231 36.088 L 106.410 36.325 106.673 39.957 L 106.936 43.590 94.463 43.590 L 81.989 43.590 82.234 51.923 L 82.479 60.256 96.581 60.684 L 110.684 61.111 110.684 64.530 L 110.684 67.949 92.094 68.179 L 73.504 68.409 73.504 39.744 L 73.504 11.078 92.094 11.308 L 110.684 11.538 110.684 14.957 M151.337 13.462 C 154.373 15.001,156.859 17.091,158.542 19.518 L 161.111 23.224 161.111 39.744 L 161.111 56.263 158.539 59.922 C 153.877 66.556,149.731 67.949,134.643 67.949 L 121.795 67.949 121.569 40.606 C 121.445 25.567,121.529 12.779,121.756 12.187 C 122.683 9.769,146.041 10.776,151.337 13.462 M182.051 39.744 L 182.051 68.376 177.778 68.376 L 173.504 68.376 173.504 39.744 L 173.504 11.111 177.778 11.111 L 182.051 11.111 182.051 39.744 M231.624 14.925 L 231.624 18.739 223.718 18.985 L 215.812 19.231 215.585 43.803 L 215.358 68.376 211.098 68.376 L 206.838 68.376 206.838 43.590 L 206.838 18.803 198.718 18.803 L 190.598 18.803 190.598 14.957 L 190.598 11.111 211.111 11.111 L 231.624 11.111 231.624 14.925 M319.611 12.797 C 330.507 18.355,331.030 37.362,320.417 42.060 C 317.902 43.173,317.368 44.315,318.683 45.769 C 319.809 47.015,329.915 66.611,329.915 67.550 C 329.915 68.004,327.824 68.376,325.268 68.376 L 320.621 68.376 314.667 56.624 L 308.713 44.872 303.003 44.872 L 297.293 44.872 297.151 56.410 L 297.009 67.949 292.949 68.209 L 288.889 68.470 288.889 39.790 L 288.889 11.111 302.598 11.111 C 314.556 11.111,316.729 11.326,319.611 12.797 M130.113 39.530 L 130.342 60.256 133.761 60.538 C 140.838 61.121,146.134 59.871,149.451 56.832 L 152.564 53.982 152.839 41.137 C 153.247 22.013,150.944 18.863,136.523 18.822 L 129.884 18.803 130.113 39.530 M250.190 20.629 C 245.191 24.357,242.788 47.366,246.623 54.781 C 250.796 62.852,262.625 62.296,266.879 53.829 C 268.943 49.722,269.029 30.727,267.008 25.675 C 264.441 19.261,255.586 16.604,250.190 20.629 M297.399 19.231 C 297.378 19.466,297.344 23.216,297.323 27.564 L 297.284 35.470 306.250 35.712 C 317.607 36.018,321.690 31.594,318.272 22.688 C 317.130 19.712,297.638 16.483,297.399 19.231 " stroke="none" fill="#FFFFFF" fill-rule="evenodd"></path></g></svg>