<svg id="svg" xmlns="http://www.w3.org/2000/svg" xmlns:xlink="http://www.w3.org/1999/xlink" width="468" height="94" viewBox="0, 0, 400,80.34188034188034"><g id="svgg"><path id="path0" d="M174.982 11.390 C 164.999 14.496,162.082 20.265,161.692 37.674 C 161.177 60.651,166.373 68.753,181.624 68.753 C 196.654 68.753,202.128 61.011,202.133 39.744 C 202.140 16.249,192.322 5.997,174.982 11.390 M277.350 11.056 C 266.554 13.684,261.343 23.838,265.482 34.182 C 267.663 39.633,271.243 41.439,285.813 44.440 C 293.651 46.055,296.941 50.947,293.948 56.539 C 291.056 61.943,276.357 62.239,268.953 57.042 L 266.538 55.347 264.073 58.229 C 260.893 61.948,260.892 61.942,265.206 64.471 C 278.322 72.157,296.598 69.849,301.693 59.862 C 307.238 48.992,301.364 39.336,287.334 36.256 C 275.033 33.556,272.650 31.967,272.650 26.467 C 272.650 18.996,284.705 15.910,293.933 21.019 C 296.003 22.165,297.758 23.000,297.834 22.876 C 297.910 22.751,298.813 21.540,299.841 20.184 C 302.427 16.771,302.231 16.078,298.077 13.939 C 291.366 10.484,283.942 9.451,277.350 11.056 M100.000 39.744 L 100.000 68.376 104.274 68.376 L 108.547 68.376 108.547 50.684 C 108.547 40.348,108.862 33.329,109.305 33.803 C 109.722 34.250,112.681 40.500,115.880 47.691 L 121.696 60.767 124.662 60.512 L 127.628 60.256 134.113 45.299 L 140.598 30.342 140.828 49.405 L 141.059 68.468 145.102 68.209 L 149.145 67.949 149.145 39.744 L 149.145 11.538 145.036 11.538 L 140.927 11.538 133.070 29.255 C 128.749 38.999,124.900 46.875,124.517 46.758 C 124.134 46.640,120.480 39.053,116.396 29.896 C 107.328 9.564,108.365 11.111,103.796 11.111 L 100.000 11.111 100.000 39.744 M213.675 39.668 L 213.675 68.376 225.059 68.376 C 249.262 68.376,253.846 63.787,253.846 39.558 C 253.846 15.660,250.181 11.777,227.137 11.262 L 213.675 10.961 213.675 39.668 M187.260 20.127 C 195.151 24.208,196.149 53.588,188.565 58.557 C 177.516 65.797,170.085 58.110,170.085 39.440 C 170.085 21.572,176.376 14.499,187.260 20.127 M239.962 20.953 C 244.492 23.629,245.299 26.503,245.299 39.960 C 245.299 57.073,242.911 60.132,229.487 60.215 L 222.650 60.256 222.419 40.617 C 222.293 29.815,222.395 20.440,222.647 19.784 C 223.350 17.951,236.369 18.830,239.962 20.953 " stroke="none" fill="#FFFFFF" fill-rule="evenodd"></path></g></svg>